<?xml version="1.0" encoding="iso-8859-1"?>
<!-- Generator: Adobe Illustrator 16.0.0, SVG Export Plug-In . SVG Version: 6.00 Build 0)  -->
<!DOCTYPE svg PUBLIC "-//W3C//DTD SVG 1.1//EN" "http://www.w3.org/Graphics/SVG/1.1/DTD/svg11.dtd">
<svg version="1.1" id="Capa_1" xmlns="http://www.w3.org/2000/svg" xmlns:xlink="http://www.w3.org/1999/xlink" x="0px" y="0px"
	 width="23.416px" height="29.259px" viewBox="0 0 23.416 29.259" style="enable-background:new 0 0 23.416 29.259;"
	 xml:space="preserve">
<path d="M11.705,15.953c-5.494,0-10.098-1.614-11.355-3.79C0.129,12.546,0,12.944,0,13.357v3.561c0,2.751,5.242,4.983,11.705,4.983
	c6.467,0,11.711-2.232,11.711-4.983v-3.561c0-0.413-0.131-0.811-0.354-1.194C21.805,14.338,17.205,15.953,11.705,15.953z"/>
<path d="M11.705,23.309c-5.494,0-10.098-1.616-11.355-3.788C0.129,19.902,0,20.3,0,20.712v3.564c0,2.752,5.242,4.983,11.705,4.983
	c6.467,0,11.711-2.23,11.711-4.983v-3.564c0-0.412-0.131-0.81-0.354-1.19C21.805,21.693,17.205,23.309,11.705,23.309z"/>
<path d="M23.096,5.041c-0.23,2.016-5.232,3.629-11.391,3.629c-6.156,0-11.158-1.613-11.387-3.628C0.117,5.408,0,5.79,0,6.183v3.561
	c0,2.752,5.242,4.983,11.705,4.983c6.467,0,11.711-2.23,11.711-4.983V6.183C23.416,5.79,23.297,5.408,23.096,5.041z"/>
<path d="M11.705,7.54c6.303,0,11.41-1.687,11.41-3.771c0-2.082-5.107-3.77-11.41-3.77C5.406,0,0.297,1.688,0.297,3.77
	C0.297,5.853,5.406,7.54,11.705,7.54z"/>
<g>
</g>
<g>
</g>
<g>
</g>
<g>
</g>
<g>
</g>
<g>
</g>
<g>
</g>
<g>
</g>
<g>
</g>
<g>
</g>
<g>
</g>
<g>
</g>
<g>
</g>
<g>
</g>
<g>
</g>
</svg>
