<?xml version="1.0" encoding="utf-8"?>
<!-- Generator: Adobe Illustrator 17.1.0, SVG Export Plug-In . SVG Version: 6.00 Build 0)  -->
<!DOCTYPE svg PUBLIC "-//W3C//DTD SVG 1.1//EN" "http://www.w3.org/Graphics/SVG/1.1/DTD/svg11.dtd">
<svg version="1.1" id="Capa_1" xmlns="http://www.w3.org/2000/svg" xmlns:xlink="http://www.w3.org/1999/xlink" x="0px" y="0px"
	 viewBox="0 0 26 26" enable-background="new 0 0 26 26" xml:space="preserve">
<g id="error__xA0_Clipping_Path_3_">
	<path id="SVGID_38_" fill="#5E5E5E" d="M13,0C5.8,0,0,5.8,0,13s5.8,13,13,13c7.2,0,13-5.8,13-13S20.2,0,13,0z M19,16.7
		c0.2,0.2,0.2,0.6,0,0.9l-1.3,1.3c-0.2,0.2-0.6,0.2-0.9,0L13,15.2l-3.8,3.8c-0.2,0.2-0.6,0.2-0.9,0L7,17.6c-0.2-0.2-0.2-0.6,0-0.9
		l3.8-3.8L7,9.2C6.8,9,6.8,8.6,7,8.3L8.3,7C8.6,6.8,9,6.8,9.2,7l3.8,3.8L16.7,7c0.2-0.2,0.6-0.2,0.9,0L19,8.3c0.2,0.2,0.2,0.6,0,0.9
		L15.2,13L19,16.7z"/>
</g>
</svg>
