<?xml version="1.0" encoding="utf-8"?>
<!-- Generator: Adobe Illustrator 17.1.0, SVG Export Plug-In . SVG Version: 6.00 Build 0)  -->
<!DOCTYPE svg PUBLIC "-//W3C//DTD SVG 1.1//EN" "http://www.w3.org/Graphics/SVG/1.1/DTD/svg11.dtd">
<svg version="1.1" id="Capa_1" xmlns="http://www.w3.org/2000/svg" xmlns:xlink="http://www.w3.org/1999/xlink" x="0px" y="0px"
	 viewBox="0 0 26.5 26.5" enable-background="new 0 0 26.5 26.5" xml:space="preserve">
<g>
	<path fill="#5E5E5E" d="M13.2,0C5.9,0,0,5.9,0,13.2c0,7.3,5.9,13.2,13.2,13.2c7.3,0,13.2-5.9,13.2-13.2C26.5,5.9,20.6,0,13.2,0z
		 M6.6,20.1l1.6-4l2.4,2.4L6.6,20.1z M19.5,9.6l-8.8,8.8l0,0l0.4-0.4l-2.5-2.5l7-7L17,7.1c0.5-0.5,1.4-0.5,2,0l0.5,0.5
		C20.1,8.2,20.1,9.1,19.5,9.6z"/>
</g>
</svg>
